# xmcd
#
# Track frame offsets:
#	150
#	16466
#	32240
#	44060
#	61854
#	78112
#	96723
#	110059
#	122926
#	142200
#	159812
#	171850
#	190537
#	207139
#	225311
#
# Disc length: 3165 seconds
#
# Revision: 0
# Processed by: cddbd v1.5.1PL0 Copyright (c) Steve Scherf et al.
# Submitted via: dBpowerAMP V4.0
#
DISCID=cc0c5b0f
DTITLE=Various Artist - Party Night Blues
DYEAR=1999
DGENRE=Blues
TTITLE0=Wait for Me
TTITLE1=Party Girl
TTITLE2=What Happened to You
TTITLE3=Chilly Cha Cha
TTITLE4=Lulu Mae
TTITLE5=The Hammer
TTITLE6=Dynamite
TTITLE7=Cross Road Blues
TTITLE8=Two Timin' Man
TTITLE9=Pop that Koochie
TTITLE10=It's Obdacious
TTITLE11=Houseful of Rockin'
TTITLE12=That Kind of Money
TTITLE13=I Got to Know
TTITLE14=Goin' to New Orleans
EXTD=
EXTT0=
EXTT1=
EXTT2=
EXTT3=
EXTT4=
EXTT5=
EXTT6=
EXTT7=
EXTT8=
EXTT9=
EXTT10=
EXTT11=
EXTT12=
EXTT13=
EXTT14=
PLAYORDER=
